<?xml version="1.0" encoding="UTF-8" standalone="no"?>
<!DOCTYPE svg PUBLIC "-//W3C//DTD SVG 1.1//EN" "http://www.w3.org/Graphics/SVG/1.1/DTD/svg11.dtd">
<svg width="100%" height="100%" viewBox="0 0 480 672" version="1.1" xmlns="http://www.w3.org/2000/svg" xmlns:xlink="http://www.w3.org/1999/xlink" xml:space="preserve" xmlns:serif="http://www.serif.com/" style="fill-rule:evenodd;clip-rule:evenodd;stroke-linecap:round;stroke-linejoin:round;stroke-miterlimit:1.5;">
    <rect x="-48" y="-67.2" width="576" height="806.4" style="fill:white;"/>
    <rect x="-48" y="-67.2" width="576" height="806.4" style="fill:white;"/>
    <g>
        <clipPath id="_clip1">
            <rect x="77.557" y="76.281" width="335" height="535.719"/>
        </clipPath>
        <g clip-path="url(#_clip1)">
            <path d="M411.958,335.224C404.469,329.495 394.49,325.068 383.865,322.781C373.781,320.599 363.589,320.453 354.401,322.344C346.323,324 339.156,327.198 333.057,331.823L332.974,331.74C332.823,331.88 332.661,332.052 332.51,332.229C326.167,337.161 321.115,343.635 317.385,351.536C316.563,349.667 314.771,348.641 312.891,347.776L309.042,346L311.599,349.38C312.151,350.115 312.375,350.724 312.281,351.229C312.057,352.391 310.125,353.568 307.88,354.938C305.036,356.656 301.354,358.901 298.875,362.604C298.786,359.844 299.333,356.146 300.401,353.771C300.432,353.781 300.453,353.792 300.49,353.792L301.052,353.932L301.469,353.536C311.542,344.109 316.979,333.74 317.63,322.708C317.667,322.578 317.708,322.448 317.719,322.323L317.641,322.313C317.932,316.443 316.854,310.531 314.417,304.734C312.922,301.156 310.901,297.661 308.448,294.323C319.104,287.641 321.938,274.406 315.24,261.667C315.047,261.292 314.813,260.896 314.458,260.375C312.708,257.797 309.536,254.688 305.859,252.589C309.417,251.865 311.307,249.115 311.609,246.521C311.969,243.354 310.198,240.573 307.172,239.604L306.844,239.495C307.484,239.302 308.125,239.099 308.766,238.885L308.917,238.833C311.609,238.031 316.948,238.406 320.505,239.401C320.005,239.656 319.547,239.943 319.13,240.214C317.464,241.281 316.63,241.813 314.75,240L313.807,239.089L313.104,240.188C312.271,241.505 312.578,243.172 313.917,244.667C315.036,245.922 316.807,246.901 318.552,247C317.385,250.818 317.578,254.792 319.13,258.375C320.911,262.479 324.286,265.609 328.635,267.203C330.688,267.953 332.833,268.318 334.979,268.318C342.031,268.318 349.036,264.458 352.573,258.063C357.297,249.542 353.964,239.87 344.469,234.536C344.146,234.354 343.76,234.182 343.323,234C341.563,233.286 338.839,232.641 335.995,232.688C337.427,230.87 337.427,228.688 336.635,227.094C335.568,224.948 333.302,223.911 330.995,224.542L330.589,224.646C330.75,224.464 330.932,224.292 331.094,224.115C336.104,218.438 339.766,211.703 342,204.12L342.214,203.406L341.604,202.969C335.781,198.724 328.109,195.536 320.005,193.99C312.302,192.5 304.547,192.557 297.583,194.167C291.469,195.578 286.068,198.135 281.495,201.771L281.443,201.703C281.323,201.813 281.214,201.943 281.099,202.068C272.661,208.953 267.469,219.24 265.641,232.651C264.297,233.531 259.849,236.51 255.922,239.656C256.094,239.161 256.26,238.672 256.411,238.172C257.984,233.083 258.385,227.693 257.62,222.156L257.51,221.417L256.776,221.271C256.307,221.172 255.844,221.089 255.385,221.021C256.078,215.432 259.563,188.505 263.62,175.021C274.766,172.417 286.021,164.438 294.646,153C298.969,147.292 302.443,140.964 304.953,134.208C308.422,124.833 309.833,115.203 309.141,105.578C308.448,95.672 305.521,86.042 300.443,76.953L300.125,76.281L299.385,76.406C290.073,77.969 280.031,82.234 271.109,88.422C262.62,94.302 255.536,101.625 250.646,109.63C246.349,116.646 243.786,124.042 242.964,131.641L242.854,131.63C242.844,131.844 242.865,132.063 242.885,132.276C241.563,146.536 246.432,160.901 257.354,174.969C254.083,184.099 250.964,199.323 249.031,209.755C248.026,202.88 245.74,195.615 242.641,192.906C244.073,181.771 242.13,172.385 236.854,164.995C236.797,164.88 236.745,164.76 236.682,164.656L236.63,164.688C233.724,160.719 229.896,157.448 225.25,154.958C219.984,152.135 213.745,150.38 207.188,149.88C200.276,149.344 193.375,150.234 187.755,152.37L187.073,152.625L187.073,153.365C187.073,159.125 188.406,165.219 191.161,171.99C191.667,173.208 192.224,174.479 192.807,175.771C187.807,181.042 183.964,187.063 181.688,193.208C179.594,198.797 178.792,204.453 179.286,210.01L179.198,210.021C179.219,210.193 179.276,210.365 179.328,210.536C180.375,220.865 185.833,230.385 195.531,238.875L195.802,244.432C191.057,240.417 186.432,237.099 182,234.557C175.63,218.479 165.984,207.031 153.318,200.51C153.104,200.339 152.911,200.208 152.729,200.104L152.677,200.198C145.891,196.807 138.391,194.896 130.359,194.552C121.193,194.146 111.495,195.792 102.307,199.333C92.63,203.063 84.021,208.677 78.068,215.141L77.557,215.719L77.953,216.406C83.057,225.172 89.693,232.557 97.672,238.359C105.427,243.995 114.229,247.995 123.844,250.24C129.505,251.552 135.25,252.219 140.979,252.219C142.24,252.219 143.5,252.182 144.771,252.12L145.208,252.089C158.776,251.328 170.823,246.839 178.505,239.74C184.849,243.365 194.552,251.167 204.474,263.047C198,260.802 189.917,261.583 184.969,264.255C172.802,260 161.807,259.943 152.292,264.115L152.068,264.115L151.948,264.234C151.854,264.266 151.745,264.276 151.661,264.318L151.693,264.391C146.609,266.714 142.057,270.24 138.193,274.891C133.802,280.161 130.38,286.766 128.297,294.005C126.089,301.635 125.479,309.589 126.578,316.411L126.698,317.146L127.432,317.286C130.661,317.885 133.865,318.198 137.036,318.198C141.193,318.198 145.271,317.682 149.255,316.646C152.729,315.745 156.115,314.432 159.354,312.755C154.609,316.88 151.49,322.323 150.495,328.385C149.323,335.5 151.135,342.719 155.635,348.672C161.5,356.474 171.198,361.063 181.271,361.063C182.563,361.063 183.859,360.969 185.151,360.818C185.854,363.604 187.094,366.193 188.854,368.516C190.578,370.813 192.755,372.792 195.318,374.391C199.495,376.99 204.344,378.307 209.172,378.307C213.307,378.307 217.422,377.344 221.052,375.396C222.578,374.573 223.969,373.625 225.198,372.542C226.448,374.224 229.161,378.005 231.125,381.927C223.438,384.547 217.25,392.333 215.094,401.578C213.318,395.047 210.391,389.276 206.344,384.391L206.344,384.313L206.13,384.109C206.031,383.938 205.938,383.771 205.833,383.63L205.755,383.693C202.474,379.885 198.516,376.615 193.943,374C192.448,373.13 190.875,372.349 189.167,371.594C181.646,368.255 172.854,366.495 163.755,366.495C154.193,366.495 144.792,368.448 137.281,371.99L136.609,372.307L136.682,373.057C137.573,382.167 140.271,390.599 144.719,398.115C149.052,405.438 154.896,411.703 162.109,416.734C167.276,420.349 172.953,423.182 178.964,425.172C185.109,427.203 191.344,428.208 197.219,428.208C203.609,428.208 209.557,427 214.516,424.625C223.37,431.391 232.698,449.224 233.969,458.953C234.557,463.464 234.771,472.677 235.016,483.333C235.323,496.974 235.677,512.37 236.896,524.833C228.734,525.443 227.87,530.948 227.198,535.417C226.792,538.057 226.448,540.344 224.75,541.286C219.182,540.901 217.016,544.031 216.276,545.583C214.625,545.594 210.661,545.766 208.406,547.755C207.646,548.427 207.135,549.24 206.891,550.172C196.161,549.891 195.375,557.109 194.99,560.615C194.948,561.042 194.88,561.557 194.818,561.875C192.427,562.12 190.042,566.26 187.807,570.76C186.797,572.792 182.906,577.901 179.359,576.391C176.938,575.354 174.318,575.422 172.161,576.563C170.01,577.708 168.573,579.781 168.078,582.391C167.438,585.813 163.776,587.234 159.885,588.75C158.927,589.125 157.964,589.5 157.036,589.906C153.198,591.583 149.672,597.036 150.74,599.609C151.063,600.391 151.969,601.484 154.479,600.849C154.844,602.24 155.557,603.333 156.594,604.089C158.208,605.266 160.177,605.307 161.234,605.214C161.828,606.016 163.089,607.339 165.219,607.938C168.12,608.76 171.583,607.969 175.484,605.589C180.516,602.531 183.667,601.495 186.026,602.125C187.651,602.563 189.026,603.865 190.255,606.109C192.797,610.771 197.297,608.792 200.583,607.339C203.266,606.156 205.094,605.448 206.109,606.391C209.099,609.125 214.578,608.677 218.583,608.344C220.036,608.229 221.286,608.12 222.057,608.198C222.568,608.25 223.5,608.385 224.719,608.557C230.943,609.469 243.911,611.359 249.5,609.359C256.047,607.031 268.932,603.693 281.656,607.531C289.536,609.917 294.344,608.995 297.526,608.375C299.901,607.917 301,607.755 302.089,608.589C303.99,610.047 308.448,610.823 313.583,610.823C319.609,610.823 326.573,609.755 331.479,607.479C335.302,605.703 339.042,606.411 342.339,607.042C346.188,607.766 350.172,608.526 351.953,603.833C353.943,598.651 349.594,596.406 346.422,594.771C344.5,593.776 342.682,592.833 342.51,591.635C341.849,586.995 337.286,584.953 331.521,582.359L330.547,581.917C327.021,580.339 324.875,574.458 323.146,569.734C322.057,566.74 321.104,564.161 319.906,562.594C317.932,560.016 314.568,559.932 311.875,559.854C310.667,559.823 308.849,559.771 308.755,559.333C307.932,555.63 302.911,555.12 297.604,555.12C294.922,555.12 293.896,552.802 292.432,549.016C291.651,546.995 290.839,544.901 289.536,543.234C286.953,539.948 283.297,539.552 279.422,539.135C277.625,538.943 275.766,538.74 273.802,538.271C271.797,537.792 269.958,535.854 267.844,533.609C263.891,529.422 258.995,524.255 249.51,524.396C246.99,507.656 246.125,477.198 245.839,467.068C245.792,465.427 245.75,464.234 245.729,463.615C245.635,461.292 245.802,456.01 246.615,450.505C248.078,450.74 249.62,450.859 251.188,450.859C259.411,450.859 268.589,447.854 273.292,444.25C275.396,450.99 279.677,457.958 285.49,464.083L285.786,464.401C290.031,468.818 294.901,472.656 300.26,475.823C307.74,480.245 315.786,483.141 324.151,484.427C327.396,484.927 330.667,485.172 333.932,485.172C339.328,485.172 344.734,484.49 350.083,483.13L350.875,482.927L350.896,482.115C351.047,474.635 348.995,466.104 345.099,458.073C341.411,450.443 336.24,443.63 330.151,438.375C327.922,436.438 325.568,434.74 323.156,433.266C325.974,429.703 326.573,423.943 326.693,421.172C329.104,421.609 331.531,421.833 333.932,421.833C334.766,421.833 335.589,421.813 336.411,421.76C341.776,421.438 347,420.031 351.932,417.583L352.661,417.219L352.5,416.417C351.615,411.859 349.24,406.953 345.823,402.604C343.016,399 339.563,395.901 335.74,393.536C335.688,389.359 335.057,386.026 334.38,383.63C337.948,384.24 341.615,384.557 345.365,384.557C347.844,384.557 350.354,384.432 352.896,384.161C360.063,383.406 367.036,381.609 373.641,378.828C382.849,374.969 390.849,369.411 397.406,362.313C404.161,355.021 409.182,346.297 412.344,336.391L412.568,335.672L411.958,335.224ZM245.474,361.521C255.526,358.25 262.5,348.406 262.5,337.328C262.5,335.042 262.193,332.828 261.615,330.724C263.406,330.969 265.375,331.068 267.266,331.068C271.26,331.068 274.87,330.682 275.661,330.583C276.12,331.547 276.578,332.432 277.026,333.245C281.365,341.177 287.339,347.505 293.755,351.099C293.563,351.161 293.375,351.229 293.172,351.302L292.839,351.432L292.656,351.729C290.99,354.458 291.12,362.036 291.292,365.625C288.833,364.75 286.505,365.245 284.411,365.693C281.068,366.406 278.854,366.891 276.656,362.292L276.089,361.115L275.052,361.896C273.224,363.276 272.807,365.797 273.932,368.641C275.052,371.516 277.635,374.297 280.542,375.13C277.443,378.885 275.724,382.839 275.042,387.693L274.745,387.531C273.589,389.635 273.021,389.37 270.672,388.25C268.719,387.318 265.964,386 261.969,386.385C264.177,384.547 267.563,382.635 270.021,382.219L270.781,382.089L270.896,381.333C270.917,381.193 271.354,377.87 266.88,375.333L266.573,375.161L266.219,375.203C263.151,375.589 257.531,380.229 254.906,382.536C254.063,380.167 252.286,378.734 250.688,377.427C248.12,375.354 246.432,373.974 248.563,369.583L249.813,366.984L247.172,368.141C246.979,368.224 245.859,368.74 244.734,369.521C244.927,364.849 245.219,362.594 245.474,361.521ZM312.302,366.802C311.531,367.208 310.646,367.714 309.651,368.344C309.823,366.74 310.615,364.526 313.411,362.391C312.995,363.833 312.62,365.297 312.302,366.802ZM172.599,305.036C172.141,304.76 171.646,304.521 171.135,304.339C171.818,303.698 172.479,303.047 173.109,302.375C172.906,303.38 172.724,304.297 172.599,305.036ZM233.026,362.068L232.578,372.5L229.01,367.906C230.188,366 231.01,363.906 231.469,361.651C231.979,361.802 232.505,361.938 233.026,362.068ZM306.125,242.531C305.766,243.365 303.938,243.984 302.016,244.635C299.557,245.469 296.406,246.542 293.802,248.797C294.333,247.042 295.349,245.109 296.578,243.729L297.167,243.057L296.609,242.359C296.589,242.328 296.344,242.052 295.917,241.708C296.49,241.656 297.068,241.609 297.656,241.526C300.271,241.182 302.87,240.651 305.411,239.943L305.922,241.068C306.203,241.698 306.266,242.188 306.125,242.531ZM218.594,263.802C220.047,264.125 221.589,264.297 223.177,264.297C228.531,264.297 234.49,262.49 240.016,259.078C240.313,258.885 240.625,258.682 240.932,258.479L236.479,292.656C233.552,288.125 226.745,278.01 217.818,267.203C218.021,266.453 218.37,265.057 218.594,263.802ZM282.807,241.344C284.677,241.646 286.578,241.849 288.5,241.932C288.104,242.682 287.766,243.641 287.453,244.807C285.563,243.557 283.406,243.089 280.734,243.365C281.688,242.458 282.401,241.75 282.807,241.344ZM286.953,247.052C286.74,248.177 286.589,249.255 286.484,250.12C284.688,249.135 282.776,249.125 281.161,249.115C278.823,249.104 277.458,248.99 276.516,247.333L277.839,246.115C282.839,244.724 285.245,245.651 286.953,247.052ZM276.016,256.255C271.516,259.87 268.568,264.786 267.651,270.313C266.635,276.438 268.203,282.651 272.063,287.771C272.255,288.026 272.469,288.276 272.672,288.531C272.427,289.234 272.198,289.953 271.984,290.677C270.802,291.063 269.594,291.557 268.375,292.146C263.656,294.443 258.943,298.141 255.427,302.276C252.781,305.391 249.682,310.073 249.094,315.406C248.135,314.88 247.13,314.411 246.094,313.995C246.99,306.328 249.448,283.422 251.047,266.219C256.339,263.995 263.464,258.943 272.297,251.146C272.927,253.245 274.26,255.219 276.016,256.255ZM314.885,236.365C316.896,235.391 318.839,234.302 320.719,233.083C320.943,234.417 321.458,236.052 322.078,237.677C320.026,236.974 317.406,236.521 314.885,236.365ZM330.74,226.464C330.932,226.583 331.25,226.818 331.286,227.031C331.37,227.521 330.495,228.635 329.714,229.62C328.698,230.911 327.427,232.516 326.672,234.505C326.286,233.125 326.052,231.542 326.219,230.464L326.339,229.703L325.698,229.38C327.073,228.229 328.38,227.021 329.62,225.734L330.74,226.464ZM266.604,234.589C270.203,237.495 274.88,239.646 280.266,240.854C279.38,241.719 278.12,242.938 276.578,244.37L275.714,245.172C275.714,245.161 275.714,245.161 275.703,245.151L275.417,243.88L274.229,244.422C272.724,245.109 271.901,246.646 271.911,248.656C263.495,256.182 256.411,261.365 251.276,263.802C252.042,255.297 252.458,249.672 252.568,246.656C253.068,245.854 253.547,245.01 253.984,244.167C257.875,240.458 264.552,235.948 266.604,234.589ZM247.396,219.047C247.286,219.688 247.193,220.229 247.13,220.661L246.969,220.661L246.969,220.724C244.755,220.885 242.536,221.234 240.333,221.771C234.974,223.052 230.016,225.344 225.99,228.411C222.464,231.104 219.729,234.333 217.839,238L217.786,237.979C217.74,238.083 217.698,238.214 217.667,238.339L217.594,238.51C214.24,245.375 213.927,253.469 216.661,262.573C216.557,263.333 216.354,264.318 216.151,265.182C210.021,257.938 203.938,251.609 198.063,246.401L198.042,246.38L197.693,239.141C206.234,236.385 214.323,228.578 219.464,218.073C221.76,213.349 223.349,208.354 224.182,203.245C224.568,200.917 224.781,198.563 224.844,196.245C226.755,196.542 228.646,196.693 230.474,196.693C234.479,196.693 238.208,195.974 241.38,194.589C245.109,197.984 247.995,211.229 247.396,219.047ZM207.698,267.031C217.901,280.151 226.318,295.359 232.76,312.219C230.677,312.573 228.646,313.193 226.854,314.016C227.932,311.12 226.833,308.391 225.078,306.854C222.849,304.896 219.813,304.714 217.526,306.417L215.583,307.859L217.964,308.318C218.563,308.438 218.948,308.615 219.109,308.885C219.516,309.526 219.089,311.141 218.63,312.839C218.042,315.052 217.281,317.865 217.604,320.953C216.193,319.318 214.771,317.063 214.354,315.375L214.172,314.646L213.427,314.573C213.307,314.563 210.552,314.328 208.771,318.078L208.62,318.385L208.682,318.729C209.13,321.094 212.901,325.281 214.943,327.401C213.307,328.203 212.328,329.547 211.557,330.672C210.979,330.969 210.448,331.302 209.932,331.667C209.88,331.109 209.802,330.542 209.719,329.984C210.276,328.589 210.938,327.401 211.609,326.651L212.125,326.073L211.74,325.411C211.354,324.75 210.167,323.677 208.141,323.51C207.542,321.786 206.781,320.021 205.865,318.281C204.302,315.318 199.99,310.469 194.563,307.505C198.932,306.823 201.24,303.552 201.599,300.458C202.016,296.849 199.979,293.672 196.536,292.573L194.25,291.833L195.245,294.026C195.609,294.828 195.693,295.438 195.5,295.875C195.052,296.922 192.979,297.63 190.578,298.438C187.552,299.469 183.635,300.802 180.505,303.729C181.078,300.901 182.531,297.224 184.198,295.349L184.714,294.771L184.318,294.109C184.276,294.036 183.333,292.505 180.885,291.995C185.964,283.141 187.896,273.802 186.25,265.995C191.922,263.068 201.922,262.885 207.698,267.031Z" style="fill:rgb(24,15,10);fill-rule:nonzero;"/>
        </g>
    </g>
    <path d="M411.318,336.068C404.297,334.411 386.703,337.406 368.042,343.125C368.385,342.635 379.417,327.016 383.641,323.828L383.641,323.818C394.286,326.115 404.083,330.531 411.318,336.068Z" style="fill:rgb(101,244,94);fill-rule:nonzero;"/>
    <path d="M368.042,343.125C386.703,337.406 404.297,334.401 411.318,336.068C408.036,346.344 402.901,354.807 396.62,361.599C396.62,361.599 374.922,347.38 368.042,343.125C368.031,343.135 368.031,343.135 368.042,343.125Z" style="fill:rgb(101,244,94);fill-rule:nonzero;"/>
    <path d="M383.641,323.818C379.427,327.026 368.385,342.646 368.042,343.125C359.667,345.693 351.089,348.802 343.161,352.266L354.615,323.37C364.177,321.411 374.24,321.786 383.641,323.818Z" style="fill:rgb(101,244,94);fill-rule:nonzero;"/>
    <path d="M373.214,377.854C366.547,380.667 359.583,382.391 352.766,383.115L352.766,383.104C347.469,379.885 325.208,361.63 325.208,361.63L325.208,361.62C330.417,358.318 336.563,355.182 343.161,352.286L373.214,377.854Z" style="fill:rgb(101,244,94);fill-rule:nonzero;"/>
    <path d="M368.031,343.135C374.922,347.37 396.62,361.599 396.62,361.599C389.865,368.896 381.771,374.266 373.214,377.854L343.161,352.276C351.089,348.802 359.677,345.693 368.031,343.135Z" style="fill:rgb(101,244,94);fill-rule:nonzero;"/>
    <path d="M354.625,323.38L343.172,352.276C336.583,355.172 330.427,358.318 325.219,361.609C325.219,359.813 329.234,337.896 333.26,333C339.625,328.042 346.964,324.964 354.625,323.38Z" style="fill:rgb(101,244,94);fill-rule:nonzero;"/>
    <path d="M351.432,416.62C346.391,419.12 341.271,420.391 336.318,420.682C336.318,420.682 332.927,408.599 331.766,404.859L331.776,404.859C341.219,408.995 349.26,413.734 351.432,416.62Z" style="fill:rgb(101,244,94);fill-rule:nonzero;"/>
    <path d="M349.786,482.083C347.328,476.729 336.125,466.391 322.484,456.526C323.036,456.547 339.682,457.125 344.083,458.526L344.094,458.526C347.99,466.552 349.938,474.922 349.786,482.083Z" style="fill:rgb(101,244,94);fill-rule:nonzero;"/>
    <path d="M322.484,456.526C336.135,466.391 347.328,476.729 349.786,482.083C340.885,484.339 332.286,484.589 324.276,483.344C324.286,483.359 323.057,462.906 322.484,456.526Z" style="fill:rgb(101,244,94);fill-rule:nonzero;"/>
    <path d="M344.958,403.255C348.333,407.552 350.589,412.313 351.422,416.62C349.25,413.734 341.208,408.995 331.766,404.87C332.052,404.818 342.125,402.99 344.958,403.255Z" style="fill:rgb(101,244,94);fill-rule:nonzero;"/>
    <path d="M344.958,403.255C342.125,402.979 332.052,404.807 331.766,404.859L331.755,404.859C327.526,403 322.995,401.266 318.604,399.87L333.656,393.573C334,393.755 334.328,393.943 334.661,394.135C338.729,396.542 342.214,399.75 344.958,403.255Z" style="fill:rgb(101,244,94);fill-rule:nonzero;"/>
    <path d="M343.995,235.464C352.38,240.167 356.365,249.094 351.688,257.542C347.286,265.505 337.286,269.214 329.042,266.208C320.698,263.161 316.63,254.151 320.208,245.672C323.089,244.24 322.984,242.927 325.599,243.396C324.286,246.339 320.057,249.813 324.328,254.75C322.719,248.969 332.375,247.589 330.323,242.188C333.38,238.182 341.667,244.594 342.234,236.943L342.99,234.984C343.354,235.146 343.708,235.302 343.995,235.464Z" style="fill:rgb(232,98,40);fill-rule:nonzero;"/>
    <path d="M344.104,458.536C339.693,457.135 323.036,456.557 322.495,456.536L322.484,456.536C316.349,452.109 309.75,447.771 303.224,444.036L329.438,439.177C335.74,444.625 340.672,451.438 344.104,458.536Z" style="fill:rgb(71,230,63);fill-rule:nonzero;"/>
    <path d="M341.016,203.823C335.661,202.677 322.385,205.266 308.37,209.938C308.37,209.938 316.661,197.568 319.833,195.036C327.943,196.573 335.438,199.75 341.016,203.823Z" style="fill:rgb(71,230,63);fill-rule:nonzero;"/>
    <path d="M308.37,209.927C322.385,205.266 335.661,202.677 341.016,203.813C338.719,211.646 334.969,218.135 330.333,223.396C330.333,223.406 313.656,213.016 308.37,209.927Z" style="fill:rgb(71,230,63);fill-rule:nonzero;"/>
    <path d="M321.786,389.917C314.844,389.297 307.078,391.167 298.979,396.844C293.521,396.203 284.188,396.786 280.245,398.682C293.245,386.516 306.672,377.057 314.344,374.359C319.328,378.177 325.698,380.859 332.833,382.292C333.87,385.276 334.661,389.307 334.661,394.135C334.328,393.943 334,393.755 333.656,393.573C330.089,391.615 326.094,390.292 321.786,389.917Z" style="fill:rgb(232,98,40);fill-rule:nonzero;"/>
    <path d="M342.214,236.943C336.88,239.557 335.833,235.734 333.078,236.896C332.661,236.031 332.75,234.964 333.323,234.031C336.766,233.318 340.651,234.042 342.969,234.984L342.214,236.943Z" style="fill:rgb(232,98,40);fill-rule:nonzero;"/>
    <path d="M333.667,393.573L318.615,399.87C314.953,398.703 311.37,397.781 308.104,397.229C308.734,396.62 318.464,390.203 321.786,389.906C326.094,390.292 330.089,391.615 333.667,393.573Z" style="fill:rgb(112,238,105);fill-rule:nonzero;"/>
    <path d="M325.625,419.891C324.094,419.557 322.589,419.151 321.146,418.661L318.604,399.88L318.615,399.87C323.005,401.266 327.526,403 331.766,404.859C332.938,408.599 336.318,420.682 336.318,420.682C332.63,420.917 329.052,420.615 325.625,419.891Z" style="fill:rgb(112,238,105);fill-rule:nonzero;"/>
    <path d="M330.333,223.406C327.823,226.25 325.057,228.719 322.099,230.849C319.182,232.943 316.083,234.708 312.901,236.13L289.688,217.281C295.635,214.51 302.078,212.01 308.37,209.927C313.656,213.016 330.333,223.406 330.333,223.406Z" style="fill:rgb(112,238,105);fill-rule:nonzero;"/>
    <path d="M321.479,433.49C324.328,435.125 326.979,437.047 329.427,439.167L303.214,444.026C297.766,440.906 292.38,438.193 287.37,436.182L287.37,436.172C288.599,435.401 303.307,429.021 311.51,429.146C315.068,430.24 318.391,431.703 321.479,433.49Z" style="fill:rgb(112,238,105);fill-rule:nonzero;"/>
    <path d="M325.625,419.891C325.625,420.297 325.698,429.563 321.479,433.5C318.391,431.714 315.078,430.24 311.521,429.156C301.141,425.984 288.833,426.156 274.839,431.651L274.698,431.286C274.698,431.286 271.443,429.49 267.297,428.109L267.297,428.099C265.568,425.536 265.396,416.214 265.781,413.734C269.339,409.604 273.141,405.568 277.052,401.771C278.323,405.297 280.427,408.859 284.771,412.568C293.385,419.911 307.974,421.547 318.625,417.75L318.625,417.74C319.458,418.083 320.302,418.406 321.167,418.682C322.589,419.151 324.094,419.557 325.625,419.891Z" style="fill:rgb(224,84,24);fill-rule:nonzero;"/>
    <path d="M325.208,361.62C325.208,361.62 347.469,379.885 352.766,383.094L352.766,383.104C345.844,383.833 339.052,383.531 332.833,382.281C325.708,380.859 319.328,378.177 314.344,374.349C313.625,373.807 312.943,373.24 312.281,372.651C315.089,368.875 319.599,365.156 325.208,361.62Z" style="fill:rgb(89,244,81);fill-rule:nonzero;"/>
    <path d="M314.042,240.776C318.339,244.938 319.771,238.958 324.135,239.87C324.135,239.87 324.135,239.859 324.125,239.859C323.979,239.505 321.276,233.49 321.703,231.38C321.875,231.219 322.042,231.083 322.203,230.964C323.932,229.693 325.172,230.302 325.172,230.302C324.833,232.578 325.922,236.578 327.063,237.828C327.266,231.125 335.13,228.005 331.318,225.557C335.417,224.443 338.172,229.948 334.297,232.943C333.891,233.26 333.557,233.635 333.323,234.031C332.75,234.964 332.661,236.031 333.078,236.896C335.833,235.734 336.88,239.557 342.214,236.943C341.646,244.594 333.354,238.182 330.302,242.188C332.354,247.589 322.698,248.969 324.307,254.75C320.047,249.813 324.266,246.328 325.578,243.396C322.964,242.927 323.068,244.24 320.188,245.672C317.354,247.073 312.505,243.193 314.042,240.776Z" style="fill:rgb(89,244,81);fill-rule:nonzero;"/>
    <path d="M322.469,456.526C323.057,462.896 324.276,483.344 324.276,483.344C315.656,482.031 307.708,478.984 300.766,474.87L303.198,444.016C309.74,447.771 316.349,452.099 322.469,456.526Z" style="fill:rgb(89,244,81);fill-rule:nonzero;"/>
    <path d="M318.604,399.891L321.146,418.672C320.281,418.396 319.438,418.073 318.604,417.729C315.911,416.641 313.411,415.302 311.156,413.786C310.24,410.901 308.104,397.25 308.104,397.25C311.37,397.792 314.953,398.714 318.604,399.891Z" style="fill:rgb(89,244,81);fill-rule:nonzero;"/>
    <path d="M313.464,305.151C315.75,310.604 316.958,316.484 316.604,322.589C315.359,327.177 303.224,339.224 302.151,339.938C301.984,335.266 301.307,330.063 300.297,324.693L300.307,324.693L313.464,305.151Z" style="fill:rgb(89,244,81);fill-rule:nonzero;"/>
    <path d="M312.464,348.734C315.583,350.172 317.88,351.729 316.286,356.828C316.276,356.87 316.255,356.917 316.245,356.958C316.104,357.323 315.974,357.693 315.849,358.068C315.625,358.688 315.411,359.333 315.208,359.964C308.573,363.552 308.359,367.948 308.583,370.286C302.401,374.349 293.021,381.599 283.245,389.797C279.313,379.323 288.844,377.813 292.698,373.901C288.781,371.583 288.172,373.74 282.693,374.307C277.286,374.865 271.781,365.703 275.693,362.76C280.125,372.021 285.969,363.286 292.443,367.38C292.443,367.38 291.568,355.516 293.552,352.286C295.115,351.656 296.365,351.536 297.323,351.646C298.042,351.932 298.755,352.188 299.484,352.401C299.484,352.401 299.484,352.417 299.495,352.417C299.688,352.552 299.781,352.661 299.781,352.661C297.88,356.125 297.26,363.167 298.37,365.865C302.677,355.234 317.151,354.958 312.464,348.734Z" style="fill:rgb(89,244,81);fill-rule:nonzero;"/>
    <path d="M313.464,305.151L300.297,324.693L300.286,324.693C299.068,318.24 297.333,311.536 295.359,305.208L302.188,296.109C303.651,295.641 305.094,295.031 306.469,294.302C306.63,294.219 306.792,294.13 306.948,294.036C309.568,297.448 311.813,301.188 313.464,305.151Z" style="fill:rgb(89,244,81);fill-rule:nonzero;"/>
    <path d="M319.833,195.026C316.651,197.557 308.37,209.927 308.37,209.927C302.078,212.01 295.635,214.51 289.688,217.281L297.849,195.208L297.849,195.198C305.047,193.536 312.677,193.646 319.833,195.026Z" style="fill:rgb(89,244,81);fill-rule:nonzero;"/>
    <path d="M325.208,361.609C319.599,365.156 315.089,368.875 312.281,372.661C312.547,370.896 312.87,369.188 313.208,367.531L313.219,367.531C313.786,364.87 314.458,362.344 315.219,359.964C315.422,359.318 315.635,358.688 315.859,358.068C316.01,357.682 316.135,357.313 316.255,356.958C316.266,356.917 316.286,356.87 316.297,356.828C320.24,346.266 326.167,338.484 333.25,333C329.234,337.896 325.208,359.813 325.208,361.609Z" style="fill:rgb(89,244,81);fill-rule:nonzero;"/>
    <path d="M289.688,217.281L312.901,236.13C311.5,236.771 310.068,237.333 308.635,237.828C308.615,237.839 308.594,237.849 308.573,237.849C304.911,239.12 301.193,239.984 297.505,240.469C293.438,238.115 276.24,224.677 276.24,224.677C280.125,222.083 284.74,219.589 289.688,217.281Z" style="fill:rgb(89,244,81);fill-rule:nonzero;"/>
    <path d="M311.521,429.146C303.307,429.021 288.599,435.411 287.38,436.172C281.995,434 277.052,432.609 272.958,432.385C273.589,432.12 274.219,431.865 274.839,431.63C288.833,426.146 301.141,425.974 311.521,429.146Z" style="fill:rgb(89,244,81);fill-rule:nonzero;"/>
    <path d="M302.141,339.948C303.224,339.234 315.359,327.188 316.594,322.599C316.031,332.422 311.427,342.792 300.766,352.766C301.927,349.391 302.323,344.974 302.141,339.948Z" style="fill:rgb(89,244,81);fill-rule:nonzero;"/>
    <path d="M308.104,397.24C308.104,397.24 310.24,410.901 311.156,413.776C304.224,409.125 299.589,402.776 298.979,396.844C301.458,396.448 304.599,396.63 308.104,397.24Z" style="fill:rgb(89,244,81);fill-rule:nonzero;"/>
    <path d="M308.125,105.646C308.839,115.552 307.219,125.13 304,133.833L303.99,133.833L264.807,138.302C267.693,130.135 271.281,121.755 275.135,113.896C282.818,111.781 307.484,105.797 308.125,105.646Z" style="fill:rgb(89,244,81);fill-rule:nonzero;"/>
    <path d="M288.115,246.656C288.557,244.521 289.219,242.349 290.167,241.365C290.625,241.292 291.052,241.26 291.438,241.26C294.344,241.26 295.755,243.021 295.755,243.021C293.599,245.469 291.974,249.542 292.38,251.917C297.786,244.115 309.516,246.464 306.865,240.62C312.599,242.469 311.63,251.125 304.729,251.693C303.99,251.755 303.318,251.948 302.729,252.24C301.354,252.901 300.422,254.099 300.25,255.443C304.396,256.193 302.719,261.547 311.073,262.531C304.516,271.203 299.599,257.167 292.87,259.594C291.172,267.589 278.63,261.781 276.109,269.885C274.849,260.745 282.531,259.859 286.354,257.391C283.62,254.823 282.724,256.448 278.203,255.938C275.349,255.615 273.193,252.078 272.969,249.125C273.75,248.422 274.484,247.76 275.203,247.104C277.542,252.75 283.214,248.005 287.339,252.099C287.349,252.089 287.552,249.417 288.115,246.656Z" style="fill:rgb(89,244,81);fill-rule:nonzero;"/>
    <path d="M302.75,252.25C307.464,254.068 311.609,258.042 313.615,260.984L311.083,262.531C302.729,261.536 304.417,256.193 300.26,255.443C300.432,254.109 301.365,252.901 302.75,252.25Z" style="fill:rgb(255,110,0);fill-rule:nonzero;"/>
    <path d="M303.99,133.823C301.479,140.609 297.99,146.875 293.844,152.349C287.859,154.016 259.328,157.802 259.328,157.802C260.495,151.74 262.406,145.104 264.807,138.302L303.99,133.823Z" style="fill:rgb(75,219,68);fill-rule:nonzero;"/>
    <path d="M303.214,444.026L300.776,474.88C295.359,471.682 290.552,467.833 286.526,463.635L286.526,463.625C286.057,458.781 287.339,436.823 287.38,436.182C292.38,438.203 297.766,440.917 303.214,444.026Z" style="fill:rgb(75,219,68);fill-rule:nonzero;"/>
    <path d="M302.188,296.109C299.099,297.094 295.885,297.469 292.708,297.318C285.51,296.943 278.547,293.771 273.854,288.339L273.854,288.328C273.526,287.943 273.203,287.557 272.906,287.151C265.344,277.104 267.438,263.26 278.203,255.938C282.724,256.458 283.62,254.823 286.354,257.391C282.542,259.859 274.849,260.745 276.109,269.885C278.63,261.786 291.172,267.589 292.87,259.594C299.589,257.167 304.505,271.193 311.073,262.531L313.604,260.984C313.88,261.401 314.13,261.797 314.323,262.167C320.568,274.047 318.573,287.516 306.948,294.036C306.792,294.13 306.63,294.219 306.469,294.302C305.094,295.031 303.661,295.641 302.188,296.109Z" style="fill:rgb(255,101,0);fill-rule:nonzero;"/>
    <path d="M302.141,339.948C302.323,344.974 301.927,349.391 300.776,352.766C300.349,352.661 299.922,352.542 299.505,352.417C299.495,352.417 299.495,352.401 299.495,352.401C299.13,352.146 298.417,351.75 297.333,351.646C289.849,348.599 282.859,341.682 277.969,332.734L278.365,332.521C282.635,334.453 302.141,339.948 302.141,339.948Z" style="fill:rgb(69,218,61);fill-rule:nonzero;"/>
    <path d="M299.557,77.453C304.813,86.865 307.474,96.396 308.125,105.646C307.484,105.797 282.818,111.792 275.125,113.896C283.714,96.354 293.552,81.443 299.557,77.453Z" style="fill:rgb(69,218,61);fill-rule:nonzero;"/>
    <path d="M300.286,324.703L272.156,317.094C271.464,313.865 271.047,310.542 270.948,307.161C270.906,306.052 270.906,304.948 270.948,303.828C271.036,301.016 271.354,298.172 271.922,295.349C274.464,296.411 290.219,302.906 295.359,305.208C297.333,311.547 299.078,318.24 300.286,324.703Z" style="fill:rgb(69,218,61);fill-rule:nonzero;"/>
    <path d="M298.979,396.844C307.078,391.156 314.844,389.297 321.786,389.917C318.464,390.214 308.734,396.63 308.104,397.24C304.599,396.63 301.458,396.448 298.979,396.844Z" style="fill:rgb(69,218,61);fill-rule:nonzero;"/>
    <path d="M298.979,396.844C299.589,402.786 304.224,409.125 311.156,413.776C313.411,415.292 315.911,416.641 318.604,417.719L318.604,417.729C307.953,421.526 293.359,419.891 284.75,412.547C280.406,408.839 278.313,405.276 277.026,401.75C278.099,400.693 279.167,399.677 280.245,398.672C284.177,396.786 293.521,396.203 298.979,396.844Z" style="fill:rgb(232,98,40);fill-rule:nonzero;"/>
    <path d="M297.849,195.198L289.688,217.281C284.74,219.589 280.125,222.083 276.24,224.677C276.198,223.396 278.885,206.568 281.859,202.839C286.609,198.99 292.078,196.531 297.849,195.198Z" style="fill:rgb(60,229,51);fill-rule:nonzero;"/>
    <path d="M297.505,240.469C295.469,240.734 293.448,240.885 291.438,240.906C288.255,240.958 285.156,240.703 282.229,240.177C276.099,239.057 270.672,236.724 266.656,233.276C268.708,230.365 272.063,227.469 276.24,224.677C276.25,224.677 293.438,238.115 297.505,240.469Z" style="fill:rgb(60,229,51);fill-rule:nonzero;"/>
    <path d="M292.708,297.318C295.885,297.479 299.099,297.094 302.188,296.109L295.359,305.208C294.516,302.5 293.63,299.859 292.708,297.339L292.708,297.318Z" style="fill:rgb(60,229,51);fill-rule:nonzero;"/>
    <path d="M292.708,297.339C293.63,299.859 294.516,302.5 295.359,305.208C290.219,302.906 274.464,296.396 271.922,295.349C272.167,294.099 272.469,292.87 272.807,291.63C273.12,290.521 273.474,289.417 273.865,288.318C278.547,293.76 285.51,296.932 292.719,297.297L292.719,297.339L292.708,297.339Z" style="fill:rgb(60,229,51);fill-rule:nonzero;"/>
    <path d="M282.703,374.307C288.182,373.74 288.792,371.583 292.708,373.901C288.854,377.802 279.313,379.323 283.255,389.797C280.745,391.917 278.214,394.083 275.693,396.286C275.693,393.38 275.724,390.672 276.068,388.089C276.688,383.328 278.344,378.938 282.703,374.307Z" style="fill:rgb(209,106,26);fill-rule:nonzero;"/>
    <path d="M276.292,329.443L275.693,329.505C275.693,329.505 266.667,330.604 260.698,329.505L260.193,329.677C259.219,326.833 257.724,324.276 255.813,322.089C256.26,320.901 257.01,319.531 257.927,318.068L273.01,320.547C273.875,323.635 274.979,326.62 276.292,329.443Z" style="fill:rgb(59,220,51);fill-rule:nonzero;"/>
    <path d="M299.557,77.453C293.542,81.443 283.703,96.354 275.125,113.896C275.125,113.896 271.161,94.646 271.708,89.302C280.661,83.089 290.583,78.953 299.557,77.453Z" style="fill:rgb(59,220,51);fill-rule:nonzero;"/>
    <path d="M259.318,157.802C259.318,157.802 287.859,154.026 293.833,152.349C285.224,163.755 273.833,171.776 262.693,174.146C261.302,174.448 259.917,174.661 258.536,174.776C257.703,170.161 258.078,164.313 259.318,157.802Z" style="fill:rgb(59,220,51);fill-rule:nonzero;"/>
    <path d="M272.948,432.396C277.042,432.62 281.984,434 287.37,436.182L287.37,436.193C287.328,436.833 286.057,458.792 286.516,463.635C280.135,457.005 275.682,449.5 273.813,442.349C272.906,438.896 272.594,435.542 272.948,432.396Z" style="fill:rgb(59,220,51);fill-rule:nonzero;"/>
    <path d="M272.156,317.094L300.286,324.703C301.307,330.073 301.974,335.276 302.141,339.948C302.141,339.948 282.635,334.453 278.344,332.521L277.948,332.734C277.349,331.667 276.792,330.563 276.281,329.443C274.979,326.62 273.865,323.635 273,320.547C272.693,319.411 272.401,318.26 272.156,317.094Z" style="fill:rgb(59,220,51);fill-rule:nonzero;"/>
    <path d="M273.01,320.536L257.927,318.057L257.927,318.047C260.469,314.016 264.391,309.323 267.286,306.427C268.12,306.693 270.948,307.161 270.948,307.161L270.964,307.161C271.057,310.542 271.474,313.865 272.167,317.094C272.401,318.26 272.693,319.411 273.01,320.536Z" style="fill:rgb(59,220,51);fill-rule:nonzero;"/>
    <path d="M272.948,432.396C272.594,435.542 272.906,438.896 273.823,442.349C269.125,447.031 255.547,451.318 245.708,449.245L245.698,449.245C246.859,442.094 249.156,434.688 253.484,432.396C261.516,428.151 269.958,431.276 272.948,432.396Z" style="fill:rgb(255,138,0);fill-rule:nonzero;"/>
    <g>
        <path d="M271.708,89.286C271.151,94.635 275.125,113.885 275.125,113.885C271.281,121.745 267.682,130.135 264.797,138.292L264.786,138.292L251.542,110.167C256.635,101.849 263.802,94.76 271.708,89.286Z" style="fill:rgb(49,201,41);fill-rule:nonzero;"/>
        <path d="M270.964,303.828C270.917,304.948 270.917,306.052 270.964,307.161L270.948,307.161C270.948,307.161 268.12,306.693 267.286,306.427C268.578,305.13 269.667,304.182 270.344,303.807L270.964,303.828Z" style="fill:rgb(49,201,41);fill-rule:nonzero;"/>
        <path d="M267.286,306.427C264.391,309.333 260.469,314.016 257.927,318.047L256.24,302.974C259.786,298.802 264.401,295.276 268.844,293.104L268.844,293.115C268.844,293.115 266.943,306.094 267.073,306.318C267.073,306.349 267.156,306.385 267.286,306.427Z" style="fill:rgb(49,201,41);fill-rule:nonzero;"/>
        <path d="M271.922,295.349C271.354,298.172 271.036,301.016 270.948,303.828L270.333,303.807C269.656,304.182 268.578,305.12 267.276,306.427C267.146,306.38 267.063,306.349 267.052,306.318C266.922,306.094 268.823,293.115 268.823,293.115L268.823,293.104C270.104,292.474 271.391,291.964 272.604,291.589L272.786,291.641C272.469,292.87 272.167,294.109 271.922,295.349Z" style="fill:rgb(49,201,41);fill-rule:nonzero;"/>
        <path d="M276.25,224.677C272.073,227.469 268.719,230.365 266.667,233.276C268.526,218.823 274.24,209.042 281.87,202.839C278.896,206.578 276.208,223.396 276.25,224.677Z" style="fill:rgb(49,201,41);fill-rule:nonzero;"/>
        <path d="M264.786,138.302C262.396,145.104 260.479,151.75 259.318,157.802C258.068,156.656 244.693,138.536 243.948,132.297C244.714,124.266 247.469,116.828 251.542,110.177L264.786,138.302Z" style="fill:rgb(49,201,41);fill-rule:nonzero;"/>
        <path d="M258.547,174.776C246.656,159.651 242.729,145.219 243.958,132.297C244.703,138.536 258.078,156.656 259.328,157.802C258.078,164.313 257.703,170.161 258.547,174.776Z" style="fill:rgb(49,201,41);fill-rule:nonzero;"/>
        <path d="M256.24,302.974L257.927,318.047C257,319.521 256.26,320.901 255.813,322.078C254.167,320.182 252.224,318.536 250.047,317.193C250.047,312.281 252.568,307.281 256.24,302.974Z" style="fill:rgb(49,201,41);fill-rule:nonzero;"/>
        <path d="M256.594,222.297C257.385,227.948 256.87,233.167 255.417,237.849C254.979,237.786 241.734,236.031 237.557,235.604C245.161,228.594 252.865,223.12 256.594,222.297Z" style="fill:rgb(49,201,41);fill-rule:nonzero;"/>
        <path d="M256.594,222.297C252.854,223.12 245.161,228.594 237.568,235.604C237.568,235.604 239.276,225.344 240.578,222.807C243.068,222.198 245.589,221.833 248.026,221.719C248.005,221.854 247.995,221.922 247.995,221.922C248.016,221.844 248.036,221.781 248.047,221.708C250.182,221.589 252.276,221.661 254.245,221.922C255.047,222.005 255.833,222.135 256.594,222.297Z" style="fill:rgb(49,201,41);fill-rule:nonzero;"/>
        <path d="M255.427,237.849C254.818,239.828 254.063,241.708 253.13,243.495C252.63,244.479 252.083,245.417 251.51,246.339C250.453,247.995 249.276,249.552 248.005,250.984L247.995,250.974L227.792,245.672C230.786,242.188 234.161,238.745 237.568,235.604C241.745,236.031 254.99,237.786 255.427,237.849Z" style="fill:rgb(49,201,41);fill-rule:nonzero;"/>
        <path d="M242.302,256.245C241.359,256.932 240.422,257.573 239.448,258.182C236.167,257.859 221.365,254.26 221.365,254.26C223.083,251.49 225.292,248.573 227.781,245.672L247.984,250.974L247.995,250.984C246.255,252.953 244.328,254.708 242.302,256.245Z" style="fill:rgb(49,201,41);fill-rule:nonzero;"/>
        <path d="M243.495,381.365C243.495,377.943 243.531,374.745 243.615,371.911L243.755,371.911C244.833,370.354 247.609,369.125 247.609,369.125C243.302,378.047 253.453,377.182 254.286,384.536C254.286,384.536 262.724,376.724 266.359,376.266C270.245,378.453 269.849,381.172 269.849,381.172C266.078,381.823 260.385,385.609 259.016,388.068C269.656,384.891 272.359,394.135 275.682,388.047L276.057,388.089C275.714,390.672 275.682,393.38 275.682,396.286C274.734,397.12 273.792,397.943 272.854,398.786C269.734,394.427 265.245,395.484 263.62,397.068C266.88,400.786 263.911,402.156 264.969,405.984C263.76,407.115 262.573,408.24 261.422,409.359C255.526,404.87 261.755,398.146 253.849,395.453C250.984,393.432 245.016,397.995 243.635,399.953C243.583,396.599 243.542,393.219 243.505,389.906C244.609,389.615 247.729,388.823 249.5,388.667C248.87,384.313 247.49,385.146 243.745,381.365L243.495,381.365Z" style="fill:rgb(49,201,41);fill-rule:nonzero;"/>
        <path d="M235.953,165.552C240.729,172.203 243.188,181.328 241.521,193.37C240.495,190.578 238.443,187.51 235.688,184.365C236,183.328 237.526,169.198 235.953,165.552Z" style="fill:rgb(49,201,41);fill-rule:nonzero;"/>
        <path d="M240.578,222.807C239.286,225.344 237.568,235.604 237.568,235.604C234.161,238.745 230.786,242.188 227.792,245.672L226.63,229.266C230.74,226.13 235.625,223.995 240.578,222.807Z" style="fill:rgb(49,201,41);fill-rule:nonzero;"/>
        <path d="M235.953,165.552C237.526,169.208 236,183.328 235.688,184.365C233.125,181.417 229.964,178.401 226.49,175.474L224.76,155.911C229.099,158.229 232.974,161.406 235.953,165.552Z" style="fill:rgb(49,201,41);fill-rule:nonzero;"/>
        <path d="M235.688,184.354C238.443,187.51 240.495,190.578 241.521,193.354C236.604,195.698 230.323,196.214 223.818,194.995L223.786,194.995C223.786,193.13 223.682,191.25 223.469,189.37C227.411,188.245 235.688,184.354 235.688,184.354Z" style="fill:rgb(49,201,41);fill-rule:nonzero;"/>
        <path d="M235.688,184.354C235.688,184.354 227.411,188.234 223.469,189.38C223.198,187.094 222.771,184.792 222.151,182.505C221.75,181.01 221.266,179.5 220.703,178.016L226.5,175.464C229.964,178.401 233.125,181.417 235.688,184.354Z" style="fill:rgb(49,201,41);fill-rule:nonzero;"/>
        <path d="M221.365,254.26C221.365,254.26 236.167,257.87 239.448,258.182C232.203,262.651 224.042,264.349 217.729,262.49C218.203,260.042 219.505,257.229 221.365,254.26Z" style="fill:rgb(49,201,41);fill-rule:nonzero;"/>
        <path d="M226.63,229.266L227.792,245.672C225.307,248.573 223.094,251.49 221.375,254.26C220.969,253.458 217.859,242.063 218.651,238.766L218.651,238.745C220.563,234.922 223.349,231.776 226.63,229.266Z" style="fill:rgb(49,201,41);fill-rule:nonzero;"/>
        <path d="M225.656,327.828C229.354,331.771 225.646,336.047 224.281,340.547C223.031,339.339 221.536,338.141 219.911,337.172C219.974,336.453 220.083,335.76 220.177,335.063C223.682,334.115 225.005,330.63 223.99,327.979L225.656,327.828Z" style="fill:rgb(49,201,41);fill-rule:nonzero;"/>
        <path d="M224.75,155.901L226.479,175.464C222.615,172.182 218.339,169.005 214.068,166.109C213.63,165.521 213.172,164.932 212.698,164.365C211.661,161.396 208.734,153.161 207.104,150.938C213.172,151.396 219.323,152.99 224.75,155.901Z" style="fill:rgb(49,201,41);fill-rule:nonzero;"/>
        <path d="M226.479,175.464L220.677,178.016C219.13,173.953 216.953,169.948 214.068,166.109C218.349,168.995 222.615,172.182 226.479,175.464Z" style="fill:rgb(49,201,41);fill-rule:nonzero;"/>
        <path d="M225.656,327.828L223.99,327.979C223.49,326.703 222.474,325.615 220.87,325.099L219.396,323.891C216.214,315.609 223.828,308.339 218.156,307.26C222.344,304.151 228.401,309.214 225.443,314.531C225.135,315.104 224.943,315.703 224.865,316.281C224.698,317.661 225.156,319.005 226.125,319.875C228.776,317.167 232.151,321.339 237.01,315.62C240.818,325.359 227.141,321.318 225.656,327.828Z" style="fill:rgb(49,201,41);fill-rule:nonzero;"/>
        <path d="M223.469,189.38C223.682,191.26 223.786,193.141 223.786,195.005C223.786,197.74 223.552,200.432 223.115,203.073L195.958,211.667C196.88,205.479 198.266,199.031 199.901,192.927C205.135,190.344 222.141,182.505 222.141,182.505C222.771,184.792 223.198,187.094 223.469,189.38Z" style="fill:rgb(49,201,41);fill-rule:nonzero;"/>
        <path d="M195.958,211.667L223.115,203.073C222.271,208.24 220.656,213.146 218.49,217.604C214.484,219.609 194.776,226.24 194.776,226.24C194.755,221.781 195.193,216.813 195.958,211.667Z" style="fill:rgb(49,201,41);fill-rule:nonzero;"/>
        <path d="M220.688,178.016C221.266,179.5 221.75,181.01 222.141,182.505C222.141,182.505 205.135,190.344 199.901,192.927C203.365,180.089 207.927,168.76 211.536,164.427C212.047,164.76 212.563,165.104 213.063,165.443C213.396,165.656 213.734,165.885 214.068,166.109C216.964,169.948 219.13,173.943 220.688,178.016Z" style="fill:rgb(49,201,41);fill-rule:nonzero;"/>
        <path d="M220.87,325.099C222.667,329.057 217.25,328.906 212.292,331.453C213.375,329.88 214.557,328.255 216.906,327.859C216.906,327.859 210.255,321.349 209.719,318.516C211.203,315.396 213.318,315.609 213.318,315.609C214.047,318.516 217.359,322.875 219.396,323.891L220.87,325.099Z" style="fill:rgb(49,201,41);fill-rule:nonzero;"/>
        <path d="M218.651,238.766C217.859,242.063 220.969,253.458 221.375,254.26C219.516,257.24 218.203,260.052 217.729,262.5C214.76,252.771 215.573,244.896 218.651,238.766Z" style="fill:rgb(49,201,41);fill-rule:nonzero;"/>
        <path d="M215.906,422.646C214.208,418.885 211.01,414.854 206.865,410.781C207.198,409.339 207.807,389.745 205.266,384.75C210.219,390.641 213.823,398.208 215.297,407.703C215.859,411.24 216.12,415.047 216.042,419.12C216.021,420.276 215.979,421.453 215.906,422.646Z" style="fill:rgb(49,201,41);fill-rule:nonzero;"/>
        <path d="M214.578,423.344C205.177,428.109 192.021,428.323 179.234,424.115C184.401,422.318 206.854,410.771 206.854,410.771C211,414.844 214.193,418.885 215.896,422.635C215.479,422.896 215.026,423.13 214.578,423.344Z" style="fill:rgb(49,201,41);fill-rule:nonzero;"/>
        <path d="M207.104,150.938C208.724,153.161 211.661,161.396 212.698,164.365C212.526,164.151 212.359,163.948 212.177,163.734C211.823,163.875 211.458,164.01 211.099,164.161C201.526,158.005 192.38,153.609 188.13,153.365C193.526,151.302 200.245,150.406 207.104,150.938Z" style="fill:rgb(49,201,41);fill-rule:nonzero;"/>
        <path d="M211.109,164.151C211.255,164.25 211.396,164.333 211.547,164.427C207.927,168.75 203.365,180.089 199.911,192.927C199.911,192.927 194.432,179.833 194.078,175.984L194.068,175.974C196.995,172.969 200.203,170.354 203.469,168.203L203.479,168.203C206,166.547 208.578,165.188 211.109,164.151Z" style="fill:rgb(49,201,41);fill-rule:nonzero;"/>
        <path d="M202.026,340.505C199.505,338.141 198.682,339.641 194.542,339.167C190.438,338.698 187.896,331.026 191.281,329.474C193.01,337.063 198.802,331.536 202.917,335.641C202.917,335.641 204.25,326.714 206.271,324.641C206.677,324.578 207.026,324.536 207.37,324.536C209.964,324.469 210.818,325.938 210.818,325.938C209.984,326.875 209.229,328.297 208.641,329.818C207.958,331.547 207.521,333.396 207.495,334.677C207.495,334.969 207.521,335.245 207.563,335.469C207.745,335.193 207.938,334.948 208.125,334.703C208.406,334.38 208.693,334.057 208.995,333.771C210.005,332.786 211.141,332.036 212.302,331.453C217.26,328.906 222.677,329.057 220.88,325.099C222.474,325.615 223.5,326.693 224,327.979C225.016,330.63 223.682,334.125 220.188,335.063C219.792,335.161 217.635,335.505 217.089,335.771C216.172,336.208 211.792,337.906 211.75,338.26C211.865,338.281 215.036,338.766 215.156,338.797C217.943,339.531 219.698,344.88 223.625,346.505C221.172,348.792 218.958,347.807 216.729,346.224C213.979,344.271 211.234,341.38 208.042,342.526C207.807,343.615 207.359,344.417 206.76,345.036C203.266,348.568 194.615,345.635 192.651,351.974C192.563,351.344 192.521,350.755 192.521,350.214C192.49,343.458 198.771,342.609 202.026,340.505Z" style="fill:rgb(49,201,41);fill-rule:nonzero;"/>
        <path d="M205.255,384.75C207.797,389.745 207.188,409.328 206.854,410.781C203,406.99 198.292,403.141 193.151,399.453L193.161,399.438L188.677,372.531C190.266,373.24 191.839,374.01 193.354,374.885C197.786,377.427 201.833,380.688 205.224,384.729C205.245,384.729 205.255,384.74 205.255,384.75Z" style="fill:rgb(49,201,41);fill-rule:nonzero;"/>
        <path d="M211.109,164.151C208.578,165.188 206,166.547 203.479,168.193L203.469,168.193C198.536,169.505 192.448,171.464 192.448,171.464L192.146,171.583C189.979,166.234 188.141,159.995 188.141,153.354C192.391,153.609 201.526,158.005 211.109,164.151Z" style="fill:rgb(49,201,41);fill-rule:nonzero;"/>
        <path d="M196.568,238.385C195.328,235.219 194.797,231.026 194.776,226.24C194.776,226.24 214.474,219.62 218.49,217.604C213.396,228.036 205.214,235.927 196.568,238.385Z" style="fill:rgb(49,201,41);fill-rule:nonzero;"/>
        <path d="M192.448,171.464C192.448,171.464 198.536,169.516 203.469,168.193C200.193,170.339 196.995,172.958 194.068,175.964C193.427,174.594 192.786,173.12 192.156,171.583L192.448,171.464Z" style="fill:rgb(49,201,41);fill-rule:nonzero;"/>
        <path d="M196.568,238.385C186.078,229.339 181.292,219.667 180.365,210.354C181.818,214.703 193.74,225.599 194.766,226.24C194.797,231.026 195.339,235.219 196.568,238.385Z" style="fill:rgb(49,201,41);fill-rule:nonzero;"/>
        <path d="M182.682,193.583L195.958,211.667C195.193,216.823 194.755,221.792 194.776,226.24C193.74,225.599 181.828,214.714 180.375,210.354C179.786,204.536 180.708,198.875 182.682,193.583Z" style="fill:rgb(49,201,41);fill-rule:nonzero;"/>
        <path d="M206.854,410.771C206.854,410.771 184.401,422.307 179.234,424.115C173.505,422.229 167.865,419.464 162.651,415.818L193.161,399.438C198.302,403.13 203,406.974 206.854,410.771Z" style="fill:rgb(49,201,41);fill-rule:nonzero;"/>
        <path d="M194.068,175.984C194.422,179.833 199.901,192.927 199.901,192.927C198.266,199.031 196.87,205.479 195.958,211.667L182.682,193.583C185.13,186.964 189.219,180.958 194.068,175.984Z" style="fill:rgb(49,201,41);fill-rule:nonzero;"/>
        <path d="M193.161,399.438L162.651,415.818C155.974,411.156 150.016,405.042 145.573,397.526C145.573,397.526 166.828,389.339 173.516,386.974C180.214,390.719 187,394.984 193.161,399.438Z" style="fill:rgb(49,201,41);fill-rule:nonzero;"/>
        <path d="M181.156,235.292C177.682,232.182 172.589,229.38 166.49,226.901C166.146,225.333 157.63,205.328 152.74,201.396C164.214,207.276 174.38,217.995 181.156,235.292Z" style="fill:rgb(49,201,41);fill-rule:nonzero;"/>
        <path d="M166.49,226.901C172.599,229.38 177.693,232.182 181.156,235.292C180.313,236.385 179.38,237.422 178.344,238.417C170.781,245.75 158.464,250.333 144.708,251.031C149.12,247.214 166.49,226.901 166.49,226.901Z" style="fill:rgb(49,201,41);fill-rule:nonzero;"/>
        <path d="M179.125,292.839C178.667,292.839 178.161,292.87 177.609,292.969C176.766,286.38 173.646,270.37 173.547,269.865L173.547,269.854C177.734,267.495 181.677,265.891 185.042,265.385C187.042,273.542 184.755,283.698 179.125,292.839Z" style="fill:rgb(49,201,41);fill-rule:nonzero;"/>
        <path d="M173.536,269.865C173.635,270.37 176.766,286.37 177.599,292.969C176.635,293.948 175.823,296.099 175.161,298.427C173.313,300.729 171.229,302.885 168.943,304.885C168.323,304.792 167.703,304.76 167.089,304.745L167.073,304.745L161.38,278.151C165.516,274.911 169.641,272.068 173.536,269.865Z" style="fill:rgb(49,201,41);fill-rule:nonzero;"/>
        <path d="M185.042,265.385C181.667,265.891 177.734,267.495 173.547,269.854C172.469,269.255 157.01,264.266 152.484,265.161C152.495,265.161 152.495,265.151 152.505,265.151C161.094,261.333 171.927,260.703 185.042,265.385Z" style="fill:rgb(49,201,41);fill-rule:nonzero;"/>
        <path d="M173.536,269.854C169.641,272.057 165.505,274.911 161.391,278.151L161.391,278.141L138.969,275.542C142.615,271.182 147.099,267.536 152.474,265.161L152.484,265.161C157,264.276 172.469,269.266 173.536,269.854Z" style="fill:rgb(49,201,41);fill-rule:nonzero;"/>
        <path d="M173.495,386.974C166.818,389.349 145.563,397.536 145.563,397.536C141.427,390.547 138.583,382.333 137.667,372.917C144,372.792 158.542,378.615 173.495,386.974Z" style="fill:rgb(49,201,41);fill-rule:nonzero;"/>
        <path d="M163.688,367.531C166.714,371.057 173.292,386.495 173.495,386.974C158.542,378.615 144,372.792 137.667,372.917C144.911,369.495 154.13,367.521 163.688,367.531Z" style="fill:rgb(49,201,41);fill-rule:nonzero;"/>
        <path d="M167.089,304.76C167.729,304.771 168.349,304.802 168.953,304.896C170.474,305.099 171.99,305.635 173.344,306.979C173.344,306.979 174.031,302.448 175.161,298.427C175.823,296.099 176.635,293.948 177.599,292.969C178.161,292.87 178.667,292.839 179.115,292.839C182.318,292.807 183.375,294.615 183.375,294.615C180.844,297.479 178.771,304 179.229,306.766C185.568,297.641 199.292,300.396 196.198,293.557C202.906,295.714 201.771,305.849 193.698,306.51C192.828,306.589 192.052,306.802 191.354,307.141C189.734,307.922 188.651,309.313 188.438,310.906C193.313,311.781 191.333,318.036 201.109,319.208C193.427,329.354 187.672,312.927 179.807,315.771C177.823,325.125 163.146,318.323 160.188,327.818C158.698,317.104 167.693,316.068 172.182,313.182C168.964,310.177 167.932,312.094 162.641,311.484C161.948,311.406 161.297,311.151 160.677,310.786C156.693,308.401 154.75,300.833 158.484,299.135C159.917,305.24 163.391,304.672 167.089,304.76Z" style="fill:rgb(49,201,41);fill-rule:nonzero;"/>
        <path d="M167.089,304.76C163.391,304.672 159.917,305.25 158.495,299.135C154.76,300.833 156.703,308.401 160.688,310.786C157.078,312.849 153.167,314.495 148.958,315.578C148.958,315.578 147.333,296.781 146.995,290.927C151.5,286.458 156.438,282.031 161.391,278.151L167.089,304.76Z" style="fill:rgb(49,201,41);fill-rule:nonzero;"/>
        <path d="M163.688,367.521C172.141,367.521 180.844,369.047 188.677,372.521L193.161,399.427L193.151,399.438C186.99,394.984 180.203,390.719 173.505,386.984L173.495,386.974C173.302,386.495 166.714,371.047 163.688,367.521Z" style="fill:rgb(49,201,41);fill-rule:nonzero;"/>
        <path d="M161.391,278.141C156.438,282.021 151.5,286.458 146.995,290.927C146.995,290.927 132.828,292.646 129.281,294.271C131.214,287.557 134.443,280.984 138.969,275.542L161.391,278.141Z" style="fill:rgb(49,201,41);fill-rule:nonzero;"/>
        <path d="M152.75,201.406C157.63,205.328 166.156,225.333 166.5,226.911C160.828,224.615 154.286,222.594 147.375,220.865L130.349,195.615C137.974,195.943 145.615,197.729 152.75,201.406Z" style="fill:rgb(49,201,41);fill-rule:nonzero;"/>
        <path d="M166.49,226.901C166.49,226.901 149.12,247.214 144.719,251.021L144.708,251.031C138.052,251.37 131.042,250.797 124.078,249.182L124.078,249.172L147.365,220.854C154.276,222.583 160.828,224.604 166.49,226.901Z" style="fill:rgb(49,201,41);fill-rule:nonzero;"/>
        <path d="M146.995,290.927C147.333,296.792 148.958,315.578 148.958,315.578C142.464,317.255 135.276,317.641 127.583,316.208C128.938,311.13 136.932,300.911 146.995,290.927Z" style="fill:rgb(49,201,41);fill-rule:nonzero;"/>
        <path d="M130.339,195.615L147.365,220.865C139.057,218.797 130.219,217.172 121.688,216.031L121.677,216.021C121.229,215.604 107.417,202.677 102.724,200.339L102.714,200.318C111.26,197.026 120.786,195.182 130.339,195.615Z" style="fill:rgb(49,201,41);fill-rule:nonzero;"/>
        <path d="M147.365,220.865L124.078,249.182L124.078,249.193C115.161,247.104 106.281,243.292 98.292,237.495C98.292,237.495 116.005,221.01 121.688,216.042C130.219,217.172 139.057,218.797 147.365,220.865Z" style="fill:rgb(49,201,41);fill-rule:nonzero;"/>
        <path d="M129.281,294.271C132.828,292.656 146.995,290.927 146.995,290.927C136.932,300.911 128.938,311.13 127.594,316.208C126.536,309.677 127.078,301.88 129.281,294.271Z" style="fill:rgb(49,201,41);fill-rule:nonzero;"/>
        <path d="M121.677,216.021C121.688,216.031 121.688,216.031 121.677,216.021C116.005,221 98.292,237.484 98.292,237.484C90.854,232.078 84.172,224.948 78.87,215.859C85.229,213.271 102.672,213.464 121.677,216.021Z" style="fill:rgb(49,201,41);fill-rule:nonzero;"/>
        <path d="M102.724,200.339C107.417,202.677 121.24,215.604 121.677,216.021C102.672,213.464 85.219,213.271 78.87,215.859C84.609,209.615 93.026,204.047 102.714,200.318L102.724,200.339Z" style="fill:rgb(49,201,41);fill-rule:nonzero;"/>
    </g>
    <path d="M263.635,397.068C265.255,395.495 269.755,394.427 272.865,398.786C270.172,401.182 267.521,403.599 264.979,405.984C263.922,402.156 266.88,400.776 263.635,397.068Z" style="fill:rgb(243,121,25);fill-rule:nonzero;"/>
    <path d="M267.286,428.099C263.505,426.839 258.984,425.943 255.547,427.063C258.526,422.594 262,418.104 265.771,413.724C265.385,416.203 265.557,425.536 267.286,428.099Z" style="fill:rgb(243,121,25);fill-rule:nonzero;"/>
    <path d="M262.703,174.146L262.745,174.349C258.099,189.474 254.234,221.922 254.234,221.922C252.276,221.661 250.182,221.589 248.036,221.708C248.24,220.979 248.37,220.125 248.443,219.161C249.797,211.016 254.083,186.88 258.536,174.776C259.927,174.661 261.313,174.448 262.703,174.146Z" style="fill:rgb(146,175,43);fill-rule:nonzero;"/>
    <path d="M253.87,395.453C261.776,398.156 255.547,404.87 261.443,409.359C253.411,417.109 246.885,424.271 244.021,429.146C244.104,423.448 243.839,411.958 243.656,399.953C245.026,397.995 251.005,393.422 253.87,395.453Z" style="fill:rgb(243,121,25);fill-rule:nonzero;"/>
    <path d="M238.745,530.406C241.391,529.26 243.818,529.26 245.922,530.703C246.938,530.427 248.146,530.135 249.406,529.974L249.37,529.76C249.083,528.479 248.828,527.026 248.573,525.453C263.609,524.661 267.083,537.75 273.526,539.286C279.953,540.818 285.297,539.578 288.672,543.865C292.057,548.161 292.057,556.146 297.573,556.146C303.094,556.146 307.068,556.755 307.688,559.526C308.307,562.281 315.964,559.214 319.031,563.214C322.099,567.198 323.932,580.094 330.078,582.849C336.208,585.62 340.813,587.458 341.422,591.745C342.031,596.042 353.688,596.203 350.917,603.406C348.161,610.609 339.875,602.339 330.984,606.474C322.099,610.609 306.286,610.464 302.688,607.714C299.089,604.948 295.104,610.474 281.911,606.474C268.719,602.5 255.526,606.026 249.094,608.313C242.651,610.609 225.177,607.396 222.109,607.083C219.036,606.776 210.458,608.922 206.771,605.557C203.083,602.177 194.818,612.302 191.13,605.557C187.448,598.807 182.427,600.026 174.865,604.625C165.057,610.609 161.682,604.016 161.682,604.016C161.682,604.016 155.849,605.245 155.24,599.406C148.188,602.177 152.484,592.974 157.385,590.813C162.292,588.667 168.12,587.438 169.042,582.516C169.958,577.609 174.563,575.464 178.849,577.302C183.141,579.141 187.448,573.615 188.667,571.167C189.891,568.708 192.958,562.557 195.094,562.87C197.245,563.177 192.958,550.286 207.677,551.208C207.979,545.99 216.875,546.609 216.875,546.609C216.875,546.609 218.104,541.703 224.844,542.313C230.99,539.552 224.245,526.094 237.802,525.786L237.953,525.766L237.964,525.766C238.104,527.13 238.25,528.479 238.422,529.75L238.745,530.406Z" style="fill:rgb(130,82,58);fill-rule:nonzero;"/>
    <path d="M234.13,361.234C232.932,361 231.776,360.677 230.656,360.26C231.417,355.344 230.37,349.953 227.698,344.88C227.068,343.661 225.859,342.099 224.26,340.557L224.26,340.547C225.625,336.047 229.333,331.771 225.635,327.828C227.12,321.318 240.792,325.359 236.979,315.62L237.865,312.99C237.995,313 238.125,313.01 238.25,313.031C240.505,313.333 242.682,313.875 244.745,314.625C246.604,315.307 248.391,316.167 250.026,317.193C252.203,318.536 254.135,320.182 255.792,322.078C257.703,324.266 259.208,326.823 260.172,329.667C260.984,332.016 261.422,334.583 261.422,337.318C261.422,348.438 254.307,357.802 244.599,360.688C242.589,361.297 240.464,361.62 238.26,361.62C236.854,361.62 235.474,361.49 234.13,361.234Z" style="fill:rgb(233,122,34);fill-rule:nonzero;"/>
    <path d="M243.766,381.365C247.516,385.146 248.891,384.313 249.521,388.667C247.76,388.823 244.63,389.615 243.531,389.906C243.505,386.974 243.484,384.099 243.495,381.365L243.766,381.365Z" style="fill:rgb(243,121,25);fill-rule:nonzero;"/>
    <path d="M234.234,313.073C235.615,312.906 236.885,312.891 237.891,312.99L237,315.62C232.141,321.349 228.766,317.167 226.115,319.875C225.146,319.005 224.698,317.672 224.854,316.281L224.865,316.281C227.688,314.422 231.255,313.417 234.234,313.073Z" style="fill:rgb(243,121,25);fill-rule:nonzero;"/>
    <path d="M234.333,388.078C235.167,394.875 233.094,433.807 233.094,433.807C233.094,433.807 219.708,420.766 216.042,419.12L216.021,419.12C216.099,415.047 215.839,411.229 215.276,407.703L215.286,407.703C215.635,395.953 223.083,385.031 232.557,382.526C233.464,384.453 234.13,386.375 234.333,388.078Z" style="fill:rgb(243,121,25);fill-rule:nonzero;"/>
    <path d="M216.052,419.12C219.729,420.766 233.104,433.807 233.104,433.807C233.104,433.807 235.167,394.875 234.344,388.078C234.141,386.375 233.464,384.443 232.578,382.516C229.922,376.734 225.307,370.927 225.307,370.927C226.245,370.01 227.047,369.036 227.74,367.979L227.75,367.99L233.531,375.443L234.151,361.234C235.484,361.49 236.875,361.62 238.281,361.62C240.484,361.62 242.609,361.297 244.62,360.688C244.063,362.24 243.755,366.365 243.615,371.911C243.531,374.745 243.495,377.953 243.495,381.365C243.484,384.099 243.505,386.974 243.531,389.906C243.563,393.219 243.604,396.594 243.656,399.953C243.839,411.958 244.104,423.458 244.021,429.146C246.885,424.271 253.411,417.109 261.443,409.359C262.599,408.24 263.781,407.115 264.99,405.984C267.531,403.599 270.182,401.182 272.875,398.786C273.813,397.943 274.755,397.12 275.703,396.286C278.224,394.083 280.755,391.911 283.266,389.797C293.042,381.589 302.422,374.349 308.604,370.286C310.453,369.057 312.026,368.13 313.219,367.531C312.88,369.188 312.557,370.896 312.292,372.661C312.953,373.26 313.635,373.828 314.354,374.359C306.682,377.057 293.245,386.516 280.255,398.682C279.177,399.688 278.109,400.703 277.042,401.76C273.141,405.552 269.328,409.594 265.771,413.724C262,418.094 258.526,422.583 255.547,427.063C258.995,425.932 263.516,426.839 267.286,428.099L267.286,428.109C271.432,429.479 274.688,431.286 274.688,431.286L274.828,431.651C274.198,431.885 273.568,432.141 272.948,432.406C269.958,431.286 261.516,428.161 253.484,432.406C249.156,434.698 246.859,442.104 245.698,449.255C244.703,455.37 244.531,461.281 244.63,463.646C244.823,468.391 245.536,506.375 248.563,525.453C248.818,527.026 249.073,528.479 249.359,529.76L249.396,529.974C248.135,530.135 246.927,530.427 245.911,530.703C243.807,529.271 241.38,529.271 238.734,530.406L238.443,529.76C238.271,528.49 238.125,527.146 237.984,525.776L237.974,525.776C235.646,503.25 236.307,469.151 234.943,458.781C233.563,448.177 223.411,429.714 214.568,423.354C215.016,423.13 215.469,422.896 215.885,422.646C215.958,421.453 216,420.276 216.01,419.12L216.052,419.12Z" style="fill:rgb(146,175,43);fill-rule:nonzero;"/>
    <path d="M181.156,235.292C186.573,238.375 191.901,242.38 196.984,246.859L196.984,246.87C204.156,253.188 210.849,260.479 216.651,267.448C228.948,282.266 237.161,295.703 237.161,295.703L242.302,256.245C244.328,254.719 246.24,252.953 248.005,250.984C249.266,249.552 250.453,247.995 251.51,246.339C251.411,249.854 250.823,257.026 250.057,265.495C248.411,283.302 245.87,306.833 245.036,313.932L244.776,314.635C242.719,313.875 240.536,313.344 238.281,313.042C238.156,313.021 238.026,313.01 237.901,313C236.896,312.906 235.635,312.917 234.245,313.083C226.854,293.328 217.526,277.906 208.448,266.26C208.448,266.26 208.438,266.26 208.438,266.25C196.208,250.557 184.422,241.74 178.354,238.427C179.38,237.422 180.323,236.385 181.156,235.292Z" style="fill:rgb(146,175,43);fill-rule:nonzero;"/>
    <path d="M207.37,324.536C207.026,324.536 206.677,324.578 206.271,324.641C204.26,326.703 202.917,335.641 202.917,335.641C198.802,331.547 193.01,337.063 191.281,329.474C187.885,331.021 190.427,338.698 194.542,339.167C187.37,344.031 184.38,352.063 185.927,359.62C174.844,361.266 163.146,356.917 156.448,348.01C147.599,336.26 150.057,320.057 162.661,311.484C167.953,312.104 168.99,310.188 172.203,313.182C167.719,316.068 158.714,317.104 160.208,327.818C163.167,318.323 177.844,325.125 179.828,315.771C187.693,312.927 193.448,329.354 201.13,319.208C191.354,318.036 193.333,311.781 188.464,310.906C188.677,309.323 189.745,307.922 191.38,307.141L191.38,307.151C197.682,309.589 203.12,315.318 204.932,318.75C205.917,320.656 206.74,322.589 207.37,324.536Z" style="fill:rgb(243,121,25);fill-rule:nonzero;"/>
    <path d="M194.542,339.167C198.682,339.651 199.505,338.141 202.026,340.505C198.771,342.599 192.49,343.458 192.49,350.214C192.49,350.766 192.531,351.354 192.615,351.974C194.583,345.635 203.245,348.557 206.729,345.036C207.339,344.417 207.786,343.615 208.01,342.526C211.203,341.37 213.948,344.255 216.693,346.224C218.927,347.807 221.141,348.792 223.594,346.505C219.677,344.88 217.911,339.531 215.125,338.797C215.005,338.766 211.833,338.281 211.719,338.26C211.76,337.906 216.141,336.208 217.057,335.771C218.042,336.156 218.979,336.635 219.891,337.172C221.51,338.141 223.021,339.339 224.26,340.547L224.26,340.557C225.849,342.099 227.068,343.672 227.698,344.88C230.37,349.953 231.417,355.344 230.656,360.26C230.25,363.042 229.292,365.661 227.719,367.979C227.026,369.036 226.224,370.01 225.281,370.927C223.948,372.245 222.344,373.422 220.5,374.417C212.646,378.604 203.031,377.932 195.833,373.443C193.458,371.969 191.354,370.083 189.656,367.828C187.734,365.297 186.505,362.484 185.917,359.609C184.38,352.063 187.37,344.031 194.542,339.167Z" style="fill:rgb(247,117,15);fill-rule:nonzero;"/>
    <path d="M278.396,555.203C278.719,555.354 278.906,555.599 279.005,555.984L281.078,555.484C280.833,554.469 280.214,553.698 279.292,553.271C278.109,552.714 276.474,552.823 275.031,553.536L275.984,555.438C276.839,555.021 277.797,554.927 278.396,555.203Z" style="fill:rgb(69,34,19);fill-rule:nonzero;"/>
    <path d="M269.51,592.995L270.547,593.167L270.724,592.13C271.323,588.677 272.797,584.828 274.734,584.036C275.5,583.714 276.354,583.917 277.359,584.635L278.599,582.901C276.568,581.458 274.938,581.651 273.922,582.068C270.802,583.354 269.37,588.24 268.813,590.771C266.38,590.557 264.328,591.078 262.521,592.375L263.76,594.104C265.365,592.964 267.193,592.609 269.51,592.995Z" style="fill:rgb(69,34,19);fill-rule:nonzero;"/>
    <path d="M197.979,591.573C196.849,591.474 195.792,591.391 194.755,591.005C193.729,590.62 193.234,590.031 192.49,589.135C192.031,588.578 191.516,587.958 190.792,587.297C187.245,584.047 183.12,583.938 178.198,586.974L179.307,588.792C183.417,586.26 186.516,586.281 189.349,588.88C189.969,589.443 190.417,589.99 190.854,590.505C191.677,591.5 192.458,592.427 194.005,593.016C195.307,593.505 196.578,593.604 197.797,593.708C199.891,593.88 201.547,594.021 203.021,595.953L204.719,594.672C202.677,591.958 200.182,591.755 197.979,591.573Z" style="fill:rgb(69,34,19);fill-rule:nonzero;"/>
    <path d="M238.177,542.828C238.911,542.87 239.307,543.563 239.51,544.141L241.521,543.422C240.943,541.786 239.771,540.797 238.318,540.698C236.693,540.615 235.057,541.641 234.224,543.297L236.125,544.26C236.552,543.38 237.406,542.792 238.177,542.828Z" style="fill:rgb(69,34,19);fill-rule:nonzero;"/>
    <path d="M228.766,552.724C230.411,552.833 231.927,553.891 233.146,555.781L233.839,556.859L234.771,555.974C235.547,555.234 236.766,554.896 237.729,555.141C238.411,555.323 238.87,555.76 239.083,556.453L241.115,555.823C240.677,554.427 239.661,553.453 238.26,553.078C236.948,552.734 235.484,552.979 234.266,553.698C232.771,551.818 230.891,550.714 228.896,550.589C226.578,550.438 224.271,551.583 222.401,553.792L224.021,555.161C225.453,553.495 227.141,552.62 228.766,552.724Z" style="fill:rgb(69,34,19);fill-rule:nonzero;"/>
    <path d="M314.526,596.896C315.698,595.818 317.932,595.391 319.63,595.911C320.323,596.125 321.188,596.599 321.411,597.578L323.484,597.109C323.135,595.557 321.99,594.417 320.26,593.87C317.833,593.109 314.813,593.719 313.083,595.323L314.526,596.896Z" style="fill:rgb(69,34,19);fill-rule:nonzero;"/>
    <path d="M293.073,576.552C294.495,576.297 295.828,576.063 297.005,576.552C299.01,577.365 300.474,580.635 300.958,581.703L301.427,582.766L302.443,582.208C305.807,580.359 309.13,579.865 311.573,580.87C313.37,581.609 314.609,583.094 315.26,585.297L317.302,584.688C316.469,581.875 314.771,579.875 312.385,578.896C309.609,577.75 306.031,578.094 302.432,579.813C301.438,577.781 299.953,575.443 297.818,574.573C296.083,573.859 294.292,574.182 292.708,574.458C290.5,574.854 289.089,575.016 287.849,573.583L286.234,574.969C288.318,577.385 290.958,576.927 293.073,576.552Z" style="fill:rgb(69,34,19);fill-rule:nonzero;"/>
    <path d="M245.141,567.875C243.922,569.604 242.771,571.25 241.286,572.021C240.365,572.49 239.385,572.521 238.24,572.542C236.417,572.589 234.344,572.641 232.365,574.693C231.531,575.557 231.104,576.286 230.797,576.833C230.339,577.63 230.208,577.849 229.078,578.073C228.125,578.266 227.313,578.37 226.521,578.479C224.547,578.745 222.839,578.969 220.583,580.401L221.724,582.198C223.573,581.021 224.932,580.839 226.802,580.583C227.578,580.474 228.469,580.359 229.479,580.156C231.417,579.781 231.979,579.01 232.62,577.901C232.901,577.406 233.219,576.854 233.88,576.177C235.25,574.755 236.651,574.714 238.271,574.682C239.49,574.651 240.88,574.62 242.234,573.922C244.193,572.917 245.547,570.984 246.859,569.115C249.417,565.479 251.188,563.339 255.333,564.984L256.115,563.01C250.229,560.646 247.406,564.656 245.141,567.875Z" style="fill:rgb(69,34,19);fill-rule:nonzero;"/>
    <path d="M229,302C229,302 217.204,279.268 201.109,286C187.891,291.529 180.258,299.498 177,307.141" style="fill:none;stroke:black;stroke-width:1px;"/>
    <path d="M245.062,369.125C245.27,369.013 269.278,331.841 297,369.125" style="fill:none;stroke:black;stroke-width:2px;"/>
    <path d="M256.624,357.501C256.431,357.484 267.605,367.858 256,388" style="fill:none;stroke:black;stroke-width:2px;"/>
    <g transform="matrix(1,0,0,0.958333,0,14)">
        <path d="M219,288C209.209,295.234 201.964,299.194 205.891,337.361" style="fill:none;stroke:black;stroke-width:1.02px;"/>
    </g>
    <path d="M210.983,296.437C206.304,300.68 209.587,323.804 219,327.818" style="fill:none;stroke:black;stroke-width:1px;"/>
</svg>
