<svg xmlns="http://www.w3.org/2000/svg" xmlns:xlink="http://www.w3.org/1999/xlink" width="480" zoomAndPan="magnify" viewBox="0 0 360 503.999982" height="672" preserveAspectRatio="xMidYMid meet" version="1.0"><defs><clipPath id="734882ebe9"><path d="M 111 48.824219 L 310.089844 48.824219 L 310.089844 433.558594 L 111 433.558594 Z M 111 48.824219 " clip-rule="nonzero"/></clipPath></defs><rect x="-36" width="432" fill="#ffffff" y="-50.399998" height="604.799979" fill-opacity="1"/><rect x="-36" width="432" fill="#ffffff" y="-50.399998" height="604.799979" fill-opacity="1"/><g clip-path="url(#734882ebe9)"><path fill="#bae158" d="M 310.082031 112.324219 C 305.847656 113.15625 301.277344 114.164062 298.441406 117.421875 C 297.023438 119.050781 296.179688 121.109375 295.644531 123.203125 C 293.21875 132.746094 296.886719 142.9375 295.078125 152.617188 C 293.796875 159.4375 289.824219 165.292969 285.078125 170.210938 C 277.839844 177.703125 262.308594 190.285156 253.105469 178.703125 C 248.398438 172.785156 247.570312 164.484375 247.253906 157.199219 C 246.910156 149.316406 248.347656 141.351562 251.78125 134.226562 C 258.9375 119.417969 275.074219 108.980469 291.464844 110.054688 C 297.714844 110.464844 303.828125 112.417969 310.082031 112.324219 Z M 125.554688 142.160156 C 130.082031 148.363281 135.546875 153.859375 141.648438 158.523438 C 149.917969 164.839844 159.332031 169.621094 169.257812 172.722656 C 172.253906 173.648438 175.289062 174.433594 178.355469 175.046875 C 185.089844 176.390625 195.640625 178.125 199.976562 170.988281 C 200.945312 169.390625 201.28125 167.519531 201.722656 165.722656 C 203.507812 158.449219 203.023438 150.9375 203.015625 143.515625 C 203.015625 137.757812 202.710938 131.976562 201.828125 126.269531 C 199.96875 114.171875 195.304688 102.160156 186.644531 93.511719 C 175.132812 82.015625 157.796875 77.527344 147.050781 65.316406 C 144.695312 62.636719 142.679688 59.566406 141.785156 56.117188 C 141.554688 55.269531 141.40625 54.417969 141.324219 53.554688 C 140.859375 49.191406 135.765625 47.21875 132.71875 50.371094 C 130.101562 53.070312 127.539062 55.804688 125.226562 58.757812 C 108.472656 80.144531 107.671875 111.902344 121.203125 135.457031 C 122.527344 137.769531 123.988281 140.007812 125.554688 142.160156 Z M 211.515625 333.980469 C 214.738281 343.0625 219.027344 352.289062 220.476562 361.863281 C 221.671875 369.808594 221.734375 377.941406 220.632812 385.898438 C 218.46875 401.515625 211.355469 417.226562 197.488281 425.707031 C 196.941406 426.042969 196.386719 426.371094 195.816406 426.675781 C 178.609375 436.132812 156.261719 433.894531 137.710938 430.3125 C 135.566406 429.902344 116.097656 424.300781 116.886719 422.335938 C 118.390625 418.605469 126.109375 415.890625 129.441406 413.75 C 140.378906 406.738281 151.1875 399.558594 162 392.382812 C 175.792969 383.230469 189.820312 374.546875 200.460938 361.601562 C 207.039062 353.601562 211.125 344.375 211.515625 333.980469 " fill-opacity="1" fill-rule="nonzero"/></g><path fill="#4a2a1f" d="M 210.535156 404.164062 C 212.429688 403.417969 214.414062 402.378906 216.378906 401.914062 C 216.714844 403.21875 215.371094 405.402344 214.75 406.550781 C 213.960938 408.011719 213.039062 409.398438 212.113281 410.785156 C 210.273438 413.539062 208.015625 416.828125 205.660156 419.160156 C 194.621094 430.113281 178.914062 434.054688 163.796875 435.640625 C 148.476562 437.238281 132.898438 435.617188 118 431.847656 C 71.007812 419.96875 37.039062 389.34375 42.15625 363.429688 C 41.222656 359.613281 40.761719 355.832031 40.929688 352.027344 C 42.148438 324.113281 74.316406 299.257812 118.621094 296.082031 C 171.035156 292.332031 219.761719 319.488281 218.058594 357.394531 C 217.933594 360.179688 217.523438 362.957031 216.839844 365.667969 C 216.335938 367.683594 215.621094 369.640625 214.738281 371.53125 C 212.542969 376.238281 209.414062 380.539062 206.175781 384.574219 C 202.867188 388.695312 199.148438 392.539062 194.832031 395.609375 C 190.554688 398.644531 185.898438 401.117188 181.152344 403.300781 C 173.449219 406.832031 165.308594 409.355469 157.019531 411.035156 C 164.40625 411.5 171.644531 411.542969 178.523438 410.910156 C 189.640625 409.890625 200.125 408.230469 210.535156 404.164062 " fill-opacity="1" fill-rule="nonzero"/><path fill="#9bd52b" d="M 280.515625 290.28125 C 277.3125 331.5 251.78125 365.320312 222.660156 392.804688 C 220.675781 394.671875 218.5625 396.585938 215.949219 397.351562 C 213.332031 398.132812 210.0625 397.40625 208.75 395.011719 C 208.550781 394.632812 208.402344 394.253906 208.308594 393.863281 C 207.617188 391.046875 209.570312 387.914062 211.449219 385.476562 C 228.3125 363.640625 246.644531 343.511719 256.53125 317.542969 C 266.921875 290.230469 268.929688 256.589844 254.894531 229.695312 C 242.296875 205.574219 217.796875 190.933594 196.183594 175.558594 C 194.820312 174.59375 193.464844 173.617188 192.121094 172.636719 C 163.40625 151.628906 141.007812 122.527344 134.453125 87.300781 C 134.230469 86.125 135.921875 85.609375 136.386719 86.710938 C 149.117188 116.789062 168.261719 141.414062 195.238281 160.574219 C 197.5 162.179688 199.800781 163.757812 202.109375 165.335938 C 221.746094 178.753906 242.464844 191.367188 257.5 210.105469 C 257.644531 210.285156 257.761719 210.484375 257.898438 210.660156 C 257.363281 202.402344 257.6875 194.109375 258.6875 185.910156 C 260.859375 167.804688 266.597656 150.148438 275.714844 134.351562 C 266.902344 149.695312 263.433594 167.941406 263.078125 185.542969 C 263.054688 186.605469 263.003906 187.675781 263.003906 188.726562 C 263.015625 202.140625 265.839844 214.351562 269.445312 226.617188 C 271.324219 232.996094 273.414062 239.382812 275.433594 245.953125 C 279.84375 260.308594 281.671875 275.273438 280.515625 290.28125 " fill-opacity="1" fill-rule="nonzero"/></svg>